<?xml version="1.0" standalone="no"?>
<!DOCTYPE svg PUBLIC "-//W3C//DTD SVG 20010904//EN"
 "http://www.w3.org/TR/2001/REC-SVG-20010904/DTD/svg10.dtd">
<svg version="1.0" xmlns="http://www.w3.org/2000/svg"
 width="860.000000pt" height="857.000000pt" viewBox="0 0 860.000000 857.000000"
 preserveAspectRatio="xMidYMid meet">

<g transform="translate(0.000000,857.000000) scale(0.100000,-0.100000)"
fill="#ffffff" stroke="none">
<path d="M5380 7250 c12 -8 12 -10 -5 -11 -21 -1 -36 -4 -45 -8 -14 -7 -58 -6
-54 1 7 12 3 11 -93 -23 -48 -17 -122 -49 -163 -71 -110 -58 -310 -192 -429
-287 l-103 -83 -57 16 c-105 29 -259 16 -336 -28 -17 -10 -22 -15 -13 -12 10
3 26 9 35 12 10 3 6 -2 -10 -11 -27 -15 -53 -12 -42 5 8 14 -114 96 -207 140
-80 37 -378 140 -443 153 l-30 6 30 -14 c17 -8 23 -14 15 -15 -9 0 -26 7 -39
16 -13 9 -41 17 -62 18 -21 0 -39 4 -39 8 0 4 -13 6 -30 4 -16 -2 -27 0 -24 5
2 4 -11 7 -31 5 -19 -1 -35 1 -35 4 0 7 -202 4 -250 -4 -14 -2 -33 -4 -43 -5
-10 0 -15 -5 -12 -11 3 -5 0 -7 -8 -4 -25 9 -215 -94 -268 -147 -27 -27 -49
-45 -49 -41 0 4 -16 -18 -36 -48 -19 -30 -33 -63 -30 -72 2 -10 0 -18 -4 -18
-11 0 -5 -88 8 -120 6 -14 11 -20 12 -15 1 6 5 -1 9 -14 3 -13 15 -29 26 -35
11 -6 22 -14 25 -17 3 -3 33 -19 67 -35 57 -28 60 -31 42 -42 -11 -7 -17 -18
-13 -24 4 -6 3 -8 -4 -4 -13 8 -44 -33 -35 -47 3 -6 1 -7 -5 -3 -11 6 -16 -6
-13 -26 0 -5 -6 -8 -14 -8 -8 0 -15 -9 -15 -20 0 -11 -5 -20 -11 -20 -6 0 -8
-7 -5 -16 3 -8 2 -13 -3 -10 -11 7 -23 -22 -14 -36 3 -6 1 -8 -5 -4 -9 5 -36
-52 -37 -79 0 -5 -4 -13 -9 -16 -5 -4 -9 -29 -10 -57 -1 -27 -4 -48 -8 -45 -5
2 -8 -20 -8 -49 0 -40 3 -49 11 -38 9 13 10 13 7 0 -2 -8 -17 -22 -34 -30 -87
-45 -366 -232 -404 -270 -3 -3 -21 -17 -40 -32 -19 -14 -44 -34 -55 -44 -11
-11 -54 -48 -95 -84 -80 -69 -97 -86 -175 -171 -78 -85 -117 -130 -160 -184
-22 -28 -44 -55 -50 -61 -6 -6 -28 -37 -50 -70 -22 -32 -45 -65 -52 -71 -6 -7
-15 -22 -18 -33 -3 -11 -11 -20 -16 -20 -5 0 -9 -4 -9 -9 0 -5 -15 -31 -33
-58 -31 -47 -161 -302 -159 -313 1 -3 -5 -14 -11 -25 -16 -26 -62 -144 -66
-168 0 -4 -8 -21 -16 -37 -9 -17 -13 -30 -10 -30 3 0 -2 -14 -10 -31 -9 -17
-14 -33 -11 -36 3 -3 -1 -18 -9 -33 -8 -15 -12 -30 -9 -33 3 -3 -2 -22 -11
-42 -8 -21 -13 -40 -11 -42 3 -3 -2 -23 -10 -45 -7 -21 -13 -42 -13 -46 1 -4
0 -9 -1 -12 -2 -6 -9 -45 -15 -90 -2 -19 -7 -51 -10 -70 -25 -165 -19 -673 8
-717 4 -6 5 -17 2 -25 -3 -7 1 -36 9 -62 8 -27 13 -53 11 -57 -3 -4 2 -25 9
-47 8 -22 13 -42 10 -45 -2 -2 2 -20 10 -39 9 -20 13 -38 10 -40 -2 -3 2 -18
10 -33 8 -15 12 -33 10 -40 -3 -7 -1 -16 5 -20 6 -3 11 -17 11 -30 0 -13 5
-27 10 -30 6 -3 10 -15 10 -26 0 -11 7 -31 16 -44 9 -14 13 -25 10 -25 -4 0 1
-11 10 -25 9 -14 13 -25 10 -25 -4 0 1 -11 10 -25 9 -14 13 -25 8 -25 -4 0 -3
-5 4 -12 7 -7 12 -20 12 -29 0 -10 7 -25 16 -33 8 -9 13 -16 10 -16 -5 0 53
-114 108 -208 20 -35 36 -68 36 -73 0 -5 4 -9 10 -9 5 0 12 -11 16 -25 3 -14
10 -25 14 -25 4 0 13 -13 20 -30 7 -16 16 -30 21 -30 4 0 10 -8 13 -17 3 -10
17 -31 31 -48 38 -47 39 -48 65 -84 14 -19 32 -42 40 -51 8 -10 37 -44 65 -76
68 -81 268 -279 335 -333 30 -25 60 -49 65 -55 6 -6 25 -22 44 -35 18 -13 41
-30 50 -38 13 -12 70 -52 168 -121 74 -52 293 -177 383 -219 96 -45 140 -63
144 -60 2 1 13 -7 25 -17 12 -11 21 -16 21 -11 0 4 10 1 23 -7 18 -12 119 -51
137 -53 3 0 21 -8 41 -17 20 -10 45 -19 55 -21 11 -2 32 -9 47 -15 16 -7 37
-12 47 -12 10 0 22 -5 25 -11 4 -5 12 -8 18 -6 7 2 27 -2 45 -9 17 -7 32 -11
32 -8 0 2 16 -3 37 -11 20 -8 38 -13 41 -11 2 3 20 -1 39 -9 18 -8 40 -12 48
-9 8 4 15 2 15 -3 0 -5 8 -9 18 -10 21 -2 77 -11 77 -13 0 -3 36 -8 90 -15 28
-3 64 -10 80 -15 17 -5 41 -9 55 -9 14 1 43 -2 65 -5 148 -24 730 -25 900 -2
22 3 63 8 90 11 73 9 79 10 92 18 6 4 18 4 26 1 9 -3 25 -1 36 5 11 6 39 13
63 16 40 4 76 11 88 15 3 1 8 2 12 1 4 0 23 6 43 15 21 8 39 13 42 10 3 -2 19
2 38 9 18 8 35 12 38 9 3 -3 18 1 35 10 16 8 32 13 35 10 3 -3 19 2 36 11 17
8 31 13 31 10 0 -3 13 1 29 9 16 9 31 13 34 10 3 -3 16 1 29 10 12 8 28 15 33
16 13 0 46 9 70 19 11 5 31 13 45 18 46 19 75 31 125 53 28 12 52 23 55 23 19
5 318 162 344 182 18 14 36 22 39 18 4 -3 7 -1 7 5 0 7 4 12 10 12 5 0 44 24
85 53 42 28 84 57 93 62 14 8 154 117 225 175 127 103 341 326 447 465 19 26
43 56 53 68 10 12 28 38 39 59 12 21 25 38 30 38 4 0 8 5 8 12 0 6 11 26 25
44 14 18 25 36 25 39 0 4 10 21 23 38 30 43 38 57 95 172 53 108 83 174 80
178 -1 1 5 13 12 27 8 14 13 28 12 33 -1 4 3 7 10 7 6 0 8 3 5 7 -4 3 -2 11 3
18 5 6 11 20 13 31 1 10 6 25 10 32 5 6 6 12 2 12 -3 0 -1 9 5 21 7 11 14 33
16 47 3 15 10 32 16 39 6 8 8 16 5 20 -3 3 1 19 9 35 9 17 13 32 10 35 -3 3 1
21 9 40 8 19 13 39 10 43 -3 4 2 27 10 50 8 23 12 46 9 51 -3 5 -2 15 2 21 9
14 13 34 18 93 2 22 5 40 5 40 15 0 20 517 7 615 -4 30 -9 73 -12 95 -6 50
-12 88 -14 95 -1 3 -2 9 -1 14 1 5 -3 21 -8 35 -6 14 -13 40 -15 56 -2 17 -8
42 -14 56 -6 15 -9 29 -6 31 2 3 -3 21 -11 41 -8 21 -13 37 -10 37 3 0 -1 13
-9 29 -9 16 -13 31 -10 34 3 3 -2 17 -11 31 -10 14 -14 26 -11 26 4 0 0 14 -9
30 -9 17 -13 30 -9 30 4 0 1 6 -5 13 -6 8 -8 17 -4 20 3 4 1 7 -5 7 -7 0 -11
3 -10 8 1 4 -3 16 -9 27 -6 11 -11 22 -11 25 -2 30 -158 341 -175 348 -4 2 -5
8 -1 13 3 5 0 9 -5 9 -6 0 -11 7 -11 15 0 8 -4 15 -10 15 -5 0 -10 4 -10 9 0
11 -138 213 -173 253 -13 15 -32 39 -43 53 -65 91 -287 313 -424 425 -30 25
-57 47 -60 50 -3 3 -39 30 -80 60 -41 30 -77 57 -80 60 -10 11 -130 90 -137
90 -3 0 -14 6 -22 14 -9 8 -47 31 -86 52 -38 20 -81 45 -95 54 -14 9 -32 19
-41 22 -9 4 -22 27 -29 52 -7 26 -17 43 -23 39 -6 -3 -7 -1 -3 6 9 15 -3 53
-15 46 -5 -3 -6 1 -3 9 3 8 -3 23 -13 34 -10 10 -19 25 -21 32 -5 20 -61 98
-98 137 -19 19 -34 40 -34 46 0 5 -3 8 -6 4 -4 -3 -22 11 -41 31 -20 20 -40
36 -45 34 -5 -1 -7 1 -4 6 6 10 -66 72 -83 72 -5 0 -11 3 -13 8 -1 4 -16 17
-32 30 -21 16 -24 22 -12 22 10 0 14 4 11 10 -4 6 1 7 11 3 11 -4 15 -3 11 4
-5 7 0 9 13 6 12 -3 20 0 20 6 0 7 4 9 10 6 14 -9 111 36 103 48 -3 5 -2 7 4
4 14 -9 55 22 47 35 -4 7 -2 8 4 4 13 -8 35 28 24 39 -4 3 1 13 11 20 10 7 17
17 16 21 -1 5 0 11 1 14 6 16 6 108 -1 104 -4 -2 -6 4 -4 15 5 26 -5 62 -16
55 -5 -3 -7 1 -4 8 7 18 -74 130 -87 122 -7 -4 -8 -2 -4 5 5 7 -4 15 -23 22
-17 6 -28 15 -25 20 3 5 -4 9 -16 9 -11 0 -23 6 -26 14 -7 17 -62 38 -77 29
-6 -4 -7 -1 -2 6 5 9 -1 12 -21 10 -16 -2 -34 -1 -39 3 -6 3 -21 5 -35 4 -14
-1 -27 1 -30 5 -3 3 -23 9 -45 12 -27 4 -35 3 -25 -3z m-140 -40 c-8 -5 -22
-9 -30 -9 -10 0 -8 3 5 9 27 12 43 12 25 0z m-60 -20 c-8 -5 -22 -9 -30 -9
-10 0 -8 3 5 9 27 12 43 12 25 0z m-55 -20 c-3 -5 -12 -10 -18 -10 -7 0 -6 4
3 10 19 12 23 12 15 0z m-84 -40 c-30 -17 -56 -29 -58 -27 -4 5 89 56 102 57
6 0 -14 -14 -44 -30z m482 -12 c-2 -5 2 -8 9 -8 24 0 92 -41 131 -78 45 -44
87 -124 87 -167 0 -17 -7 -41 -16 -53 -19 -27 -82 -69 -118 -78 -14 -3 -23
-11 -19 -17 3 -6 1 -7 -5 -3 -17 10 -83 -4 -75 -17 3 -6 1 -7 -5 -3 -18 11
-107 -4 -91 -16 9 -5 5 -6 -13 -2 -31 7 -94 -11 -120 -34 -11 -9 -18 -29 -18
-48 0 -39 29 -64 76 -64 17 0 51 -7 74 -15 23 -8 47 -12 54 -8 6 3 8 3 4 -2
-4 -4 23 -29 60 -55 85 -60 205 -177 264 -257 25 -34 49 -59 53 -55 5 4 5 2 1
-5 -3 -6 2 -26 13 -45 45 -78 65 -219 40 -285 -16 -44 -69 -93 -134 -124 -33
-16 -66 -29 -73 -29 -7 0 -10 -5 -6 -12 4 -6 3 -8 -4 -5 -5 4 -55 2 -109 -5
-85 -10 -116 -9 -212 6 -61 9 -146 28 -187 42 -42 13 -80 21 -86 18 -6 -4 -8
-3 -5 3 8 12 -71 45 -87 36 -6 -3 -8 -3 -4 2 5 4 -29 30 -73 57 -78 47 -185
124 -259 186 -34 29 -35 30 -17 50 11 12 16 26 12 32 -3 6 -1 9 5 8 6 -2 23
18 37 45 l25 47 78 -72 c80 -75 239 -182 271 -182 10 0 16 -3 13 -7 -6 -10 26
-20 38 -12 6 3 8 1 5 -4 -8 -13 20 -26 35 -16 6 3 8 1 5 -4 -8 -13 70 -46 85
-37 6 4 8 2 4 -4 -8 -13 29 -26 45 -16 7 4 9 3 6 -3 -7 -12 165 -73 204 -73
30 0 54 23 43 41 -4 8 -3 9 4 5 8 -5 12 2 12 19 0 15 -4 24 -10 20 -5 -3 -7 0
-4 8 6 17 -49 43 -67 31 -7 -4 -10 -3 -6 3 8 13 -39 27 -55 17 -6 -4 -8 -3 -5
3 8 13 -39 27 -55 17 -6 -4 -8 -3 -4 4 8 13 -89 47 -105 36 -7 -4 -9 -3 -6 4
8 12 -80 45 -96 35 -5 -3 -7 -1 -3 5 8 13 -29 26 -45 16 -7 -4 -9 -3 -6 3 8
13 -20 26 -36 16 -7 -3 -9 -2 -4 2 9 11 -121 87 -134 79 -5 -3 -8 0 -7 8 2 7
-5 12 -14 12 -10 -1 -16 1 -14 5 3 4 -29 31 -70 61 -66 49 -74 58 -72 85 2 21
7 29 18 26 8 -2 23 -4 32 -5 9 0 15 -3 12 -7 -5 -9 130 -62 211 -82 160 -41
317 -53 480 -37 135 13 165 26 165 70 0 45 -23 52 -136 39 -61 -7 -161 -9
-277 -5 -243 10 -256 10 -251 15 6 6 -155 54 -183 55 -12 1 -19 3 -17 5 2 2
-9 12 -25 22 -43 26 -45 69 -6 144 39 78 161 201 237 240 31 16 54 34 51 39
-3 5 -1 6 5 2 6 -4 37 1 67 10 31 9 87 17 123 19 37 2 70 4 74 4 17 2 28 40
19 65 -8 20 -19 26 -58 32 -80 12 -283 -31 -267 -57 3 -5 -2 -6 -10 -3 -19 7
-102 -42 -173 -102 -28 -25 -73 -76 -99 -115 -46 -70 -46 -70 -62 -47 -8 13
-31 40 -51 61 l-36 39 45 39 c57 50 194 147 313 222 50 32 91 63 89 69 -1 5 2
7 7 4 14 -9 42 5 34 17 -3 5 -1 7 5 4 14 -9 43 3 36 14 -3 5 1 6 9 4 17 -7
100 29 90 39 -4 4 -1 5 7 2 8 -3 44 0 80 8 66 15 212 17 203 4z m-553 -22 c0
-3 -26 -21 -59 -40 -32 -20 -107 -70 -166 -111 -60 -42 -102 -69 -95 -60 12
14 307 215 316 215 2 0 4 -2 4 -4z m-1475 -86 c13 -5 14 -9 5 -9 -8 0 -24 4
-35 9 -13 5 -14 9 -5 9 8 0 24 -4 35 -9z m65 -20 c18 -12 2 -12 -25 0 -13 6
-15 9 -5 9 8 0 22 -4 30 -9z m-472 -7 c-16 -2 -40 -2 -55 0 -16 2 -3 4 27 4
30 0 43 -2 28 -4z m532 -13 c8 -5 11 -10 5 -10 -5 0 -17 5 -25 10 -8 5 -10 10
-5 10 6 0 17 -5 25 -10z m-367 -22 c56 -12 114 -22 129 -22 14 -1 24 -4 22 -7
-6 -10 113 -42 126 -34 8 5 11 4 7 -2 -8 -12 99 -47 115 -37 6 4 8 3 5 -3 -8
-12 88 -47 104 -37 7 4 10 3 6 -2 -3 -5 28 -27 68 -48 40 -21 85 -49 101 -61
27 -22 28 -23 11 -46 -9 -13 -29 -42 -43 -64 -15 -22 -28 -42 -30 -44 -3 -3
-19 9 -37 26 -74 69 -250 179 -268 167 -7 -4 -9 -3 -5 4 8 13 -29 26 -45 16
-8 -4 -9 -3 -5 4 8 14 -37 27 -55 16 -7 -4 -9 -3 -6 4 10 16 -126 36 -197 28
-66 -6 -96 -29 -96 -71 0 -38 29 -52 124 -60 49 -4 118 -16 155 -27 36 -11 76
-21 88 -21 12 -1 19 -4 17 -6 -8 -8 219 -121 229 -114 6 3 7 2 4 -4 -4 -6 9
-19 29 -29 l35 -19 -7 -85 c-4 -47 -8 -86 -9 -88 -2 -2 -31 5 -66 14 -76 21
-246 24 -329 6 -111 -25 -191 -53 -184 -64 5 -7 2 -8 -5 -3 -16 9 -103 -23
-96 -36 4 -5 -1 -6 -9 -3 -19 7 -117 -47 -109 -60 3 -5 1 -6 -5 -2 -13 8 -71
-27 -154 -92 -49 -38 -58 -50 -58 -76 0 -73 50 -74 150 -2 97 69 216 138 313
180 42 18 73 37 69 41 -4 5 -2 5 5 1 17 -10 64 4 56 17 -3 6 -1 7 5 3 14 -8
84 3 78 13 -5 7 19 9 211 15 79 2 145 1 147 -2 2 -4 6 -19 9 -33 6 -24 0 -30
-88 -79 -51 -30 -91 -58 -88 -63 3 -6 1 -7 -5 -4 -15 10 -43 -3 -35 -16 3 -5
1 -7 -5 -4 -15 10 -43 -3 -35 -16 3 -5 1 -7 -4 -4 -16 10 -74 -4 -66 -16 3 -6
1 -7 -5 -3 -18 11 -103 -4 -95 -17 3 -6 1 -7 -6 -3 -17 11 -73 -3 -65 -16 4
-7 2 -8 -5 -4 -14 9 -53 -2 -47 -13 3 -4 -3 -7 -12 -7 -59 0 -82 -5 -82 -18 0
-19 32 -26 115 -26 143 0 322 30 309 52 -4 6 -3 8 4 5 15 -10 43 3 35 16 -3 5
-1 7 5 4 15 -10 43 3 35 16 -3 6 -1 7 5 3 16 -9 113 44 105 57 -3 6 -1 7 6 3
6 -4 26 2 44 13 l33 20 42 -49 43 -49 -40 -26 c-22 -13 -78 -44 -125 -67 -47
-23 -83 -45 -81 -49 3 -4 -1 -6 -8 -5 -23 2 -186 -67 -180 -77 3 -6 1 -7 -5
-3 -16 10 -63 -4 -55 -17 3 -6 1 -7 -6 -3 -17 11 -73 -3 -65 -16 4 -7 2 -8 -5
-4 -6 4 -48 0 -94 -10 -127 -27 -287 -23 -420 10 -60 14 -114 23 -119 19 -7
-3 -8 -1 -4 5 7 11 -8 16 -42 15 -7 -1 -11 1 -8 4 3 3 -14 18 -38 33 -83 53
-125 120 -126 200 0 56 46 190 89 259 17 29 28 57 25 64 -4 7 -4 9 1 5 4 -4
34 16 65 46 41 37 72 57 104 65 53 13 82 47 72 86 -3 13 -14 29 -24 34 -17 9
-189 43 -229 45 -11 1 -19 4 -17 7 2 3 -7 11 -21 17 -13 6 -31 22 -40 36 -34
52 9 124 118 196 34 23 61 47 59 52 -1 5 2 7 7 4 13 -8 82 25 75 36 -3 4 1 6
8 3 7 -3 33 2 58 9 69 22 216 19 333 -6z m427 2 c18 -12 2 -12 -25 0 -13 6
-15 9 -5 9 8 0 22 -4 30 -9z m55 -20 c13 -6 15 -9 5 -9 -8 0 -22 4 -30 9 -18
12 -2 12 25 0z m55 -20 c8 -5 11 -10 5 -10 -5 0 -17 5 -25 10 -8 5 -10 10 -5
10 6 0 17 -5 25 -10z m50 -20 c8 -5 11 -10 5 -10 -5 0 -17 5 -25 10 -8 5 -10
10 -5 10 6 0 17 -5 25 -10z m45 -28 c-3 -3 -11 0 -18 7 -9 10 -8 11 6 5 10 -3
15 -9 12 -12z m745 4 c0 -9 -140 -116 -152 -115 -7 0 -4 4 7 9 11 5 47 32 80
59 61 51 65 54 65 47z m-611 -84 c36 -33 36 -33 -13 3 -27 20 -62 43 -77 51
-16 8 -29 17 -29 20 0 10 83 -41 119 -74z m1218 42 c-3 -3 -12 -4 -19 -1 -8 3
-5 6 6 6 11 1 17 -2 13 -5z m-1904 -31 c-13 -2 -35 -2 -50 0 -16 2 -5 4 22 4
28 0 40 -2 28 -4z m1010 -10 c-23 -2 -64 -2 -90 0 -26 2 -7 3 42 3 50 0 71 -1
48 -3z m-158 -13 c-11 -5 -27 -9 -35 -9 -9 0 -8 4 5 9 11 5 27 9 35 9 9 0 8
-4 -5 -9z m260 0 c13 -5 14 -9 5 -9 -8 0 -24 4 -35 9 -13 5 -14 9 -5 9 8 0 24
-4 35 -9z m-1268 -42 c-3 -7 -5 -2 -5 12 0 14 2 19 5 13 2 -7 2 -19 0 -25z
m156 -45 c-7 -2 -19 -2 -25 0 -7 3 -2 5 12 5 14 0 19 -2 13 -5z m1061 -25 c-5
-8 14 -12 44 -11 7 1 11 -1 8 -4 -3 -3 11 -18 32 -33 20 -15 54 -45 74 -67 20
-23 40 -38 44 -35 4 4 4 2 1 -5 -10 -16 3 -44 16 -36 5 3 7 1 4 -4 -4 -6 -4
-25 -1 -43 5 -22 9 -28 15 -18 5 8 7 -1 4 -22 -2 -19 -7 -56 -10 -82 -9 -68
-59 -161 -112 -207 -68 -60 -139 -83 -244 -79 -48 2 -85 6 -83 9 2 3 -14 14
-36 24 -43 19 -123 98 -141 139 -7 14 -16 23 -22 19 -6 -3 -7 -1 -3 5 8 13 -3
64 -13 58 -3 -2 -4 33 0 78 5 58 14 96 32 132 14 29 23 55 19 59 -4 3 -2 5 3
4 6 -2 28 14 50 36 22 21 61 48 87 60 26 12 46 24 44 26 -3 2 40 4 94 4 54 0
96 -3 94 -7z m984 -495 c-10 -2 -28 -2 -40 0 -13 2 -5 4 17 4 22 1 32 -1 23
-4z m65 0 c-7 -2 -21 -2 -30 0 -10 3 -4 5 12 5 17 0 24 -2 18 -5z m-2886 -185
c-3 -7 -5 -2 -5 12 0 14 2 19 5 13 2 -7 2 -19 0 -25z m1761 15 c-10 -2 -26 -2
-35 0 -10 3 -2 5 17 5 19 0 27 -2 18 -5z m238 -90 c11 -7 24 -10 29 -6 4 5 5
3 2 -3 -7 -12 25 -47 39 -42 5 2 9 0 9 -3 0 -15 29 -39 44 -37 8 2 16 -2 16
-9 0 -16 53 -55 65 -48 6 4 9 1 8 -7 -2 -7 5 -12 14 -12 10 1 16 -3 15 -10 -1
-6 6 -10 15 -10 10 1 15 -2 13 -7 -8 -11 33 -31 47 -23 7 5 8 3 3 -6 -6 -10
-4 -12 9 -7 10 4 15 3 11 -3 -8 -13 121 -74 136 -64 7 4 9 3 5 -4 -8 -13 29
-26 45 -16 8 4 9 3 5 -4 -8 -14 37 -27 55 -16 7 4 10 3 6 -3 -8 -13 78 -38
183 -54 136 -21 453 3 434 32 -3 5 2 6 10 3 20 -8 127 42 124 58 -2 6 6 12 17
13 11 0 19 6 18 12 -2 7 3 12 10 10 6 -1 11 4 9 11 -1 8 2 11 7 8 13 -8 34 21
25 35 -4 7 -3 9 4 5 15 -9 33 28 26 51 -5 15 -4 16 6 3 10 -13 11 -11 7 8 -3
12 -1 20 4 16 5 -3 9 4 9 15 0 11 4 22 10 26 11 7 190 -102 324 -197 599 -428
1016 -1047 1150 -1708 47 -231 59 -557 31 -790 -82 -665 -433 -1291 -984
-1753 -34 -28 -47 -34 -58 -26 -19 17 -16 36 9 53 12 9 17 16 11 16 -12 0 -53
-47 -53 -61 0 -5 5 -8 11 -6 6 1 14 -4 16 -10 3 -7 -2 -13 -11 -13 -9 0 -15
-5 -13 -12 3 -15 -187 -152 -325 -235 -467 -280 -1000 -447 -1575 -494 -182
-15 -581 -6 -743 16 -453 61 -853 185 -1225 379 -815 425 -1391 1155 -1544
1956 -39 204 -45 266 -45 480 0 303 35 527 127 802 132 394 339 727 652 1046
189 194 396 360 613 491 l73 44 23 -22 c12 -12 25 -19 28 -16 3 3 11 -3 19
-12 13 -17 12 -17 -6 -4 -11 7 -7 2 8 -13 16 -14 33 -23 39 -20 6 4 8 3 5 -3
-8 -13 50 -46 65 -37 6 4 8 3 4 -4 -8 -13 29 -26 45 -16 8 4 9 3 5 -4 -8 -14
89 -45 212 -68 118 -22 351 -15 472 15 133 33 211 61 204 73 -4 7 -2 8 5 4 16
-10 53 3 45 16 -4 7 -2 8 5 4 16 -10 53 3 45 16 -5 7 -2 8 5 3 16 -9 92 25 84
38 -3 6 -1 7 5 4 15 -10 43 3 35 16 -3 5 -1 7 5 4 15 -10 43 3 35 16 -3 5 -1
7 5 4 15 -10 43 3 35 16 -3 6 -1 7 5 3 15 -9 75 22 67 34 -4 6 1 7 11 3 11 -4
15 -2 11 4 -4 6 1 10 11 9 9 0 16 4 15 10 -1 7 5 11 15 10 9 0 16 5 14 12 -1
8 2 11 8 7 5 -3 15 -3 22 1 16 10 58 12 52 3 -9 -15 112 -31 181 -26 76 7 168
34 160 47 -7 11 35 0 61 -17z m1381 -35 c-2 -13 -4 -3 -4 22 0 25 2 35 4 23 2
-13 2 -33 0 -45z m-1654 15 c-7 -2 -21 -2 -30 0 -10 3 -4 5 12 5 17 0 24 -2
18 -5z m54 1 c-3 -3 -12 -4 -19 -1 -8 3 -5 6 6 6 11 1 17 -2 13 -5z m-1260
-210 c-3 -3 -12 -4 -19 -1 -8 3 -5 6 6 6 11 1 17 -2 13 -5z m140 0 c-3 -3 -12
-4 -19 -1 -8 3 -5 6 6 6 11 1 17 -2 13 -5z m2380 -60 c-3 -3 -12 -4 -19 -1 -8
3 -5 6 6 6 11 1 17 -2 13 -5z m-2520 -40 c-3 -3 -12 -4 -19 -1 -8 3 -5 6 6 6
11 1 17 -2 13 -5z m140 0 c-3 -3 -12 -4 -19 -1 -8 3 -5 6 6 6 11 1 17 -2 13
-5z"/>
<path d="M5485 4866 c-237 -46 -423 -208 -500 -437 -23 -69 -28 -103 -29 -189
-1 -125 12 -186 66 -299 81 -170 258 -307 448 -347 385 -81 755 204 777 600
16 296 -174 568 -459 655 -89 27 -215 34 -303 17z m194 -312 c68 -57 57 -165
-20 -204 -48 -25 -76 -25 -116 0 -44 26 -65 63 -65 110 1 50 15 76 55 100 47
29 108 26 146 -6z m-258 -227 c64 -43 70 -133 13 -190 -66 -67 -177 -34 -203
60 -21 76 39 153 119 153 22 0 51 -9 71 -23z m505 -10 c71 -65 50 -172 -40
-206 -33 -13 -44 -13 -79 0 -135 47 -102 238 41 239 34 0 49 -6 78 -33z m-263
-229 c10 -5 27 -24 37 -41 43 -71 10 -161 -68 -185 -38 -13 -46 -12 -86 8 -80
38 -98 130 -39 192 42 44 101 54 156 26z"/>
<path d="M2778 4805 c-222 -56 -396 -219 -470 -440 -19 -59 -23 -90 -23 -195
0 -110 4 -134 28 -203 93 -265 344 -447 617 -447 299 0 570 220 636 516 47
212 -22 440 -180 596 -74 74 -147 120 -248 155 -91 33 -268 41 -360 18z m-96
-227 c9 -7 69 -76 134 -153 64 -77 119 -141 123 -142 3 -2 76 53 161 122 172
138 199 149 239 99 26 -33 27 -65 4 -92 -10 -12 -81 -71 -158 -132 -77 -62
-141 -115 -142 -118 -2 -4 53 -74 122 -155 69 -82 128 -160 131 -174 10 -37
-24 -77 -69 -81 -43 -4 -36 -10 -186 171 -63 75 -117 137 -122 137 -4 0 -74
-54 -156 -120 -81 -66 -158 -123 -171 -127 -51 -13 -101 38 -88 90 4 16 60 68
160 148 85 68 155 127 155 130 1 3 -50 66 -112 140 -165 197 -164 195 -126
243 23 29 73 36 101 14z"/>
<path d="M4469 2688 c-19 -21 -21 -30 -15 -105 5 -71 4 -83 -9 -83 -39 0 -313
-32 -387 -45 -46 -8 -86 -15 -90 -15 -10 0 -38 98 -38 135 0 41 -30 68 -72 67
-64 -2 -86 -78 -54 -186 11 -35 11 -48 3 -51 -7 -2 -55 -13 -107 -26 -52 -12
-140 -37 -194 -56 -55 -18 -102 -31 -104 -28 -3 3 1 40 8 82 18 111 16 134
-10 155 -77 62 -139 -30 -140 -208 l0 -71 -31 -7 c-89 -17 -439 15 -439 41 0
3 18 48 41 99 37 85 40 95 27 121 -18 37 -61 52 -96 32 -22 -12 -75 -110 -105
-194 -11 -30 -137 77 -179 152 -43 77 -81 92 -132 52 -34 -27 -33 -61 3 -124
45 -77 95 -130 174 -181 40 -26 74 -49 76 -51 8 -6 -31 -91 -49 -108 -43 -39
-12 -125 45 -125 37 0 89 52 119 121 24 52 31 60 50 55 124 -31 270 -45 411
-40 l111 4 13 -48 c23 -88 83 -118 131 -67 23 25 23 28 11 87 -7 33 -9 64 -4
68 20 18 365 120 407 120 9 0 19 -15 26 -41 22 -82 87 -113 135 -64 29 29 30
36 9 92 -9 24 -15 45 -13 47 8 7 296 45 396 52 l101 6 16 -30 c19 -37 52 -62
83 -62 30 0 63 34 63 65 0 24 1 25 63 19 92 -8 274 -41 342 -62 l60 -19 -2
-49 c-5 -82 4 -112 38 -129 16 -9 39 -13 49 -10 33 10 60 54 60 96 0 22 1 39
3 39 2 0 41 -13 88 -29 108 -36 242 -67 343 -80 45 -5 82 -15 87 -23 5 -7 9
-32 9 -54 0 -75 61 -115 113 -74 24 19 27 28 27 79 l0 57 48 2 c126 6 269 77
405 202 100 91 148 229 97 280 -22 22 -60 26 -90 10 -11 -6 -26 -34 -35 -67
-13 -47 -28 -69 -73 -113 -60 -58 -172 -130 -232 -148 -19 -6 -57 -12 -85 -14
l-50 -3 -5 59 c-8 88 -57 120 -114 75 -22 -18 -26 -28 -26 -75 l0 -55 -47 6
c-102 14 -203 38 -313 74 l-115 37 3 85 c3 71 1 88 -15 106 -28 34 -65 39 -97
11 -23 -19 -28 -34 -33 -86 -5 -51 -9 -62 -22 -58 -151 44 -241 61 -402 76
-68 7 -127 17 -130 22 -3 5 -9 44 -12 85 -4 51 -11 81 -23 94 -24 27 -78 25
-105 -3z"/>
<path d="M6667 1539 c4 -13 8 -18 11 -10 2 7 -1 18 -6 23 -8 8 -9 4 -5 -13z"/>
<path d="M6590 1532 c0 -4 5 -13 12 -20 8 -8 8 -15 -3 -29 -12 -16 -11 -15 9
1 12 11 22 20 22 20 0 1 -9 9 -20 19 -11 9 -20 13 -20 9z"/>
<path d="M6648 1493 c6 -2 12 -11 12 -19 0 -9 4 -13 10 -9 14 9 0 35 -19 34
-10 0 -11 -2 -3 -6z"/>
<path d="M6545 1439 c-4 -6 -5 -12 -2 -15 2 -3 7 2 10 11 7 17 1 20 -8 4z"/>
<path d="M6410 1381 c0 -6 4 -13 10 -16 6 -3 7 1 4 9 -7 18 -14 21 -14 7z"/>
<path d="M6440 1381 c0 -6 4 -13 10 -16 6 -3 7 1 4 9 -7 18 -14 21 -14 7z"/>
<path d="M6410 1335 c-11 -13 -10 -14 4 -9 9 3 16 10 16 15 0 13 -6 11 -20 -6z"/>
<path d="M6355 1320 c-3 -5 -3 -15 0 -20 4 -6 1 -19 -6 -28 -12 -14 -10 -14 8
1 26 22 37 57 18 57 -8 0 -17 -4 -20 -10z"/>
<path d="M6304 1246 c-3 -8 -13 -12 -25 -9 -10 3 -19 3 -19 0 0 -15 40 -12 54
4 9 11 11 19 6 19 -6 0 -13 -6 -16 -14z"/>
<path d="M6135 1240 c-3 -6 1 -7 9 -4 18 7 21 14 7 14 -6 0 -13 -4 -16 -10z"/>
<path d="M6130 1213 c0 -6 8 -17 18 -24 16 -13 16 -13 2 6 -8 11 -16 22 -17
24 -2 2 -3 0 -3 -6z"/>
<path d="M6230 1209 c0 -5 -13 -15 -30 -20 -16 -6 -28 -16 -27 -22 1 -6 -9
-16 -23 -23 -27 -14 -43 -9 -20 7 13 9 13 10 0 6 -8 -2 -15 -15 -16 -30 l-1
-26 38 30 c22 17 39 35 39 40 0 5 5 9 11 9 6 0 22 9 36 20 19 15 21 20 9 20
-9 0 -16 -5 -16 -11z"/>
<path d="M6046 1083 c-14 -15 -23 -29 -20 -32 2 -3 12 5 20 18 9 12 26 26 38
31 16 7 17 9 4 9 -9 1 -28 -11 -42 -26z"/>
<path d="M5736 1072 c-3 -5 1 -9 9 -9 8 0 12 4 9 9 -3 4 -7 8 -9 8 -2 0 -6 -4
-9 -8z"/>
<path d="M5978 1053 c6 -2 18 -2 25 0 6 3 1 5 -13 5 -14 0 -19 -2 -12 -5z"/>
<path d="M5761 1034 c0 -11 3 -14 6 -6 3 7 2 16 -1 19 -3 4 -6 -2 -5 -13z"/>
<path d="M5933 1024 c-10 -22 -10 -23 13 -7 28 18 28 19 11 26 -7 2 -18 -6
-24 -19z"/>
<path d="M5877 999 c-3 -12 -10 -18 -16 -14 -7 3 -8 0 -5 -9 3 -9 10 -13 15
-10 16 9 29 43 20 48 -5 3 -11 -4 -14 -15z"/>
<path d="M5740 1001 c0 -5 5 -13 10 -16 15 -9 12 -36 -7 -59 -18 -21 -18 -21
3 -3 14 11 28 15 40 10 18 -7 18 -6 2 11 -10 9 -18 22 -18 27 0 6 -7 17 -15
25 -8 9 -15 11 -15 5z"/>
<path d="M5808 953 c7 -3 16 -2 19 1 4 3 -2 6 -13 5 -11 0 -14 -3 -6 -6z"/>
</g>
</svg>
